<svg width="28" height="25" viewBox="0 0 28 25" fill="none" xmlns="http://www.w3.org/2000/svg">
<path d="M7.21777 10C9.14418 11.8769 10.8213 13.5 14 13.5C17.1787 13.5 18.8558 11.8769 20.7822 10H22.4004L14 25L5.59961 10H7.21777ZM20.1484 11.9746C18.5912 13.3565 16.7927 14.5 14 14.5C11.207 14.5 9.408 13.3568 7.85059 11.9746L14 22.9541L20.1484 11.9746ZM11.1279 10C11.7604 10.9066 12.8107 11.5 14 11.5C15.1893 11.5 16.2396 10.9066 16.8721 10H18.0312C17.2948 11.4815 15.7667 12.5 14 12.5C12.2333 12.5 10.7052 11.4815 9.96875 10H11.1279ZM28 9H0V8H28V9ZM24.0801 7H22.9336L26.2949 1H1.70508L5.06543 7H3.91992L0 0H28L24.0801 7Z" fill="#EDEDED"/>
</svg>
